PathFileType	4	(X/Y/Z)	Kaydara	
DataRate	CameraRate	NumFrames	NumMarkers	Units	OrigDataRate	OrigDataStartFrame	OrigNumFrames	
60.00	60.00	4	74	mm	60.00	470	164	
Frame#	Time	N_lasi			N_rasi			N_rpsi			N_lpsi			N_fneck			N_bneck			N_fhead			N_rhead			N_lhead			N_rshld			N_relbtop			N_relbext			N_relblow			N_rwrext			N_rwrtop			N_rwrlow			N_lshld			N_lelbext			N_lelblow			N_lelbtop			N_lwrext			N_lwrtop			N_lwrlow			N_rtopleg			N_ltopleg			N_rkneefr			N_rkneebk			N_rkneeis			N_lkneefr			N_lknssbk			N_lkneeis			N_rankfr			N_rankis			N_rankbk			N_lankfr			N_lankbk			N_lankis			D_lasi			D_rasi			D_rpsi			D_lpsi			D_fneck			D_bneck			D_fhead			D_rhead			D_lhead			D_rshld			D_relbtop			D_relbext			D_relblow			D_rwrext			D_rwrtop			D_rwrlow			D_lshld			D_lelbext			D_lelblow			D_lelbtop			D_lwrext			D_lwrtop			D_lwrlow			D_rtopleg			D_ltopleg			D_rkneefr			D_rkneebk			D_rkneeis			D_lkneefr			D_lknssbk			D_lkneeis			D_rankfr			D_rankis			D_rankbk			D_lankfr			D_lankbk			D_lankis			
		X1	Y1	Z1	X2	Y2	Z2	X3	Y3	Z3	X4	Y4	Z4	X5	Y5	Z5	X6	Y6	Z6	X7	Y7	Z7	X8	Y8	Z8	X9	Y9	Z9	X10	Y10	Z10	X11	Y11	Z11	X12	Y12	Z12	X13	Y13	Z13	X14	Y14	Z14	X15	Y15	Z15	X16	Y16	Z16	X17	Y17	Z17	X18	Y18	Z18	X19	Y19	Z19	X20	Y20	Z20	X21	Y21	Z21	X22	Y22	Z22	X23	Y23	Z23	X24	Y24	Z24	X25	Y25	Z25	X26	Y26	Z26	X27	Y27	Z27	X28	Y28	Z28	X29	Y29	Z29	X30	Y30	Z30	X31	Y31	Z31	X32	Y32	Z32	X33	Y33	Z33	X34	Y34	Z34	X35	Y35	Z35	X36	Y36	Z36	X37	Y37	Z37	X38	Y38	Z38	X39	Y39	Z39	X40	Y40	Z40	X41	Y41	Z41	X42	Y42	Z42	X43	Y43	Z43	X44	Y44	Z44	X45	Y45	Z45	X46	Y46	Z46	X47	Y47	Z47	X48	Y48	Z48	X49	Y49	Z49	X50	Y50	Z50	X51	Y51	Z51	X52	Y52	Z52	X53	Y53	Z53	X54	Y54	Z54	X55	Y55	Z55	X56	Y56	Z56	X57	Y57	Z57	X58	Y58	Z58	X59	Y59	Z59	X60	Y60	Z60	X61	Y61	Z61	X62	Y62	Z62	X63	Y63	Z63	X64	Y64	Z64	X65	Y65	Z65	X66	Y66	Z66	X67	Y67	Z67	X68	Y68	Z68	X69	Y69	Z69	X70	Y70	Z70	X71	Y71	Z71	X72	Y72	Z72	X73	Y73	Z73	X74	Y74	Z74	

83	7.817	541.88683	1130.53200	423.42678	788.89473	1155.69908	453.87466	792.90604	1196.25854	735.60760	449.98592	1178.19962	694.09294	585.71362	1554.43451	516.17298	633.79650	1653.27652	615.01026	569.15375	1726.44135	380.83817	677.74826	1755.96542	552.02919	522.24243	1740.73486	544.19952	881.63193	1514.21616	598.38196	991.87408	1209.93553	665.50682	938.44902	1170.32997	606.65825	967.48299	1208.90610	581.01219	1015.75775	905.63293	586.29280	992.16652	909.87686	544.55147	945.50995	910.26749	555.16304	382.90855	1500.44388	639.95861	411.93348	1155.53856	642.80815	326.41750	1169.06265	587.63062	328.23860	1164.69894	674.40430	336.60133	870.37437	582.11712	344.64764	870.22804	534.71863	396.28227	877.76840	542.04491	881.33324	990.38147	580.08003	402.06230	1016.14723	615.97797	805.74837	526.08124	558.72845	795.89310	543.31238	701.08620	682.25052	518.13850	605.66505	517.55165	544.31557	336.11965	473.97514	568.59497	465.77400	614.52171	558.46577	448.77327	835.13954	135.58055	677.28043	758.70796	136.00992	652.86842	758.14499	123.81395	739.40781	560.21187	229.87263	542.93587	530.26783	258.32279	615.34019	616.59889	260.48513	584.72912	-870.70534	1012.98996	747.22588	-1143.68309	1030.38429	830.99709	-1152.24136	1130.67276	625.55489	-943.52982	1103.28270	559.15306	-949.74472	1509.11850	781.64047	-1013.21426	1587.51862	682.58308	-859.12071	1679.31107	861.16081	-1024.93423	1720.57495	792.47292	-907.27730	1705.59814	692.15897	-1163.47519	1468.34625	835.13641	-1234.02588	1132.50229	915.91087	-1162.85172	1138.83972	893.34091	-1205.82924	1196.23917	968.84750	-1113.18008	1008.62167	1110.78293	-1083.39867	1054.23012	1132.13036	-1049.90784	1048.63113	1088.72269	-842.11739	1467.28058	555.75329	-904.32190	1138.42186	538.38387	-822.18918	1171.54236	484.21917	-897.88155	1154.57901	459.88373	-825.49919	912.17995	448.22552	-799.88586	911.85257	484.66763	-833.01682	913.39279	523.75477	-1227.32224	984.31885	762.57095	-858.17223	978.65219	603.44170	-1195.44189	441.17798	711.92276	-1259.09706	495.53474	640.33310	-1142.59216	474.75311	595.21545	-846.51474	474.93748	829.77692	-886.55846	463.84876	718.70155	-947.39052	459.70497	838.77975	-1280.06927	149.17257	529.75639	-1229.42871	163.61689	481.55720	-1308.72726	181.90125	462.11784	-826.04561	147.57906	895.73135	-856.93367	115.12984	833.87619	-891.88278	139.16681	908.75435 
84	7.833	543.36452	1130.24574	411.82407	791.04935	1154.14146	439.55948	797.70287	1196.02875	720.14069	454.57230	1178.30620	684.04793	588.23940	1554.19128	502.87689	636.32229	1653.03329	601.71417	567.39902	1726.79153	368.92014	679.19540	1755.56137	538.74241	523.37250	1740.18387	533.15983	884.09096	1514.57001	578.95817	997.68127	1210.46661	641.13983	943.59573	1171.34178	583.11867	970.50407	1210.21263	557.33391	1017.75322	907.00035	556.45081	993.43483	912.12044	515.51617	947.01736	912.88322	526.66782	385.88005	1500.18951	631.65089	416.10920	1155.50484	641.81137	328.75504	1168.32741	582.82318	331.71021	1164.79424	669.64020	340.39581	869.89929	578.96374	348.24047	869.34174	531.71661	399.69402	877.31140	538.53714	882.94868	988.24539	565.65136	404.51298	1015.57991	605.56931	804.76372	524.78596	556.44333	796.28052	544.54971	698.04443	681.61751	518.51208	603.35838	519.06601	551.03695	316.24554	475.48576	569.21761	447.38274	614.45110	560.99949	430.40279	834.64455	135.89272	676.62758	758.01537	136.57812	652.81334	757.95433	124.40241	739.52751	566.10310	224.47645	499.73354	537.71427	247.63189	574.53709	623.29212	252.15374	542.47726	-859.96628	1013.63052	759.60587	-1132.18689	1030.78796	845.33577	-1142.28943	1129.92188	639.35352	-933.61565	1103.68240	571.61991	-937.23579	1509.33411	792.86591	-1001.07826	1587.74445	693.88641	-845.61836	1679.26102	871.72935	-1011.83823	1720.94147	804.06952	-894.82635	1705.64270	702.83615	-1150.94170	1468.91129	847.41180	-1223.57880	1132.64160	925.39810	-1152.03812	1138.36464	903.12370	-1194.58771	1195.31799	979.11072	-1103.46771	1005.08484	1118.29803	-1072.59697	1049.97665	1139.86794	-1039.76631	1044.29794	1096.21780	-830.31067	1465.98755	566.84734	-894.00215	1137.02827	551.44600	-811.62109	1169.48708	497.05162	-887.34146	1152.80251	472.86671	-816.67610	909.91211	462.21478	-791.23192	909.45442	498.66783	-824.68163	911.36902	537.62066	-1216.32706	984.14703	777.54379	-848.52615	979.66446	615.92529	-1189.49493	439.90475	731.45020	-1251.68922	496.57360	659.55002	-1135.36133	474.25171	615.46486	-836.99921	474.51805	837.75902	-879.00124	463.98952	727.20573	-938.17307	459.64771	847.86819	-1278.32718	153.92447	539.75929	-1227.26875	168.75338	492.18445	-1305.81787	189.14061	472.92233	-821.20842	144.88597	900.01564	-853.28651	113.90283	837.92923	-886.93703	137.63702	913.42850 
85	7.850	544.34265	1128.78235	400.10567	792.83890	1151.38329	425.05360	802.15973	1194.89571	704.43214	458.43315	1177.37633	673.99574	590.40676	1552.70309	489.46724	638.48965	1651.54495	588.30452	565.31593	1726.13144	356.58920	679.97658	1754.54758	524.71054	524.35486	1738.99185	521.60961	885.97633	1514.03351	559.68071	1004.19060	1210.34737	614.09691	948.86955	1171.71165	558.21213	973.07724	1210.88593	533.59779	1019.22691	908.02269	524.99210	993.79982	914.10690	485.26230	947.68333	915.11398	497.34951	388.67836	1499.03641	622.81467	418.79780	1154.58763	635.77328	330.82581	1166.84929	577.90718	334.94007	1164.28841	664.74701	343.88142	868.55003	575.91389	351.32832	867.76474	528.57979	402.84264	875.90019	534.90734	884.44496	985.52429	551.17329	406.61926	1013.57498	594.37016	803.85902	523.37631	553.82416	796.56960	545.33161	695.36507	679.85542	518.71193	601.44005	521.31413	556.49303	297.71366	477.82188	569.50714	429.39678	615.62977	562.15797	412.72350	834.22340	136.11872	676.20865	757.41356	137.03675	652.66968	757.64793	125.14712	738.96622	569.68880	219.12239	455.42236	543.18211	236.72041	532.22935	627.76905	243.03055	499.44305	-848.96553	1015.72556	771.00136	-1119.89189	1031.89056	859.45679	-1132.81349	1130.11612	653.21342	-924.40697	1105.86487	584.23992	-924.69688	1510.41504	803.91312	-988.68713	1588.92548	705.24155	-832.08076	1679.99771	882.29958	-998.50647	1722.23770	815.53589	-882.08015	1706.52145	713.79723	-1138.27354	1470.52689	859.73244	-1213.17116	1133.67355	934.11110	-1141.63658	1138.65906	911.65825	-1183.36792	1195.06981	988.87802	-1095.06378	1001.09932	1124.80339	-1063.24074	1045.13710	1146.89026	-1030.93483	1039.51729	1102.78450	-818.10120	1465.41702	578.01159	-882.81136	1136.26144	564.98940	-800.18463	1168.16048	510.42133	-876.01646	1151.68541	486.25450	-806.66466	908.31886	476.84853	-781.32820	907.81250	513.37269	-815.23743	910.16296	552.20329	-1205.06851	984.23996	792.78091	-839.03526	982.47581	627.20150	-1183.34770	439.10595	753.03223	-1243.71338	497.95685	680.61523	-1127.60773	474.07078	637.33067	-827.72720	475.76332	846.36528	-870.54024	466.14227	735.97046	-928.49762	461.48495	857.32407	-1276.14677	158.94791	551.50562	-1224.87679	174.72437	505.26661	-1302.56531	197.28863	485.95509	-817.37923	143.14779	903.48404	-850.08575	113.92739	840.75310	-883.16978	136.85279	916.77368 
86	7.867	544.64989	1126.17920	388.31097	794.10477	1147.68127	410.32829	806.30600	1193.30994	689.08409	461.83022	1175.80605	663.92044	592.06829	1551.07574	475.30830	640.15121	1649.91776	574.14558	563.25603	1724.80225	343.92891	680.38002	1752.88727	509.66709	524.65466	1737.32330	509.67369	887.26120	1512.68433	540.54771	1007.60887	1209.15298	591.69445	952.32758	1171.19324	535.56934	975.10994	1210.85777	509.74865	1019.57886	908.64822	492.89970	993.29697	916.02890	453.96435	947.35451	917.10922	467.14123	391.08311	1497.18048	613.48522	420.60432	1152.35123	625.20905	332.46948	1164.56482	572.79430	337.68684	1162.89207	659.58122	346.76811	866.27113	573.02418	353.75660	865.52094	525.60436	404.85275	874.05655	530.46795	886.01288	982.41692	536.64848	408.73737	1011.61972	583.19817	802.86331	521.79787	550.91248	796.23817	546.54419	691.89621	679.05930	518.82923	598.49701	524.28223	560.57991	280.99976	480.45208	569.02824	412.38876	617.55157	561.95335	396.70940	833.81462	136.49317	675.70335	756.94878	137.57248	652.17255	757.44080	125.80729	738.13362	571.05488	214.16819	410.50911	546.46862	225.62977	488.94203	630.18532	233.66913	455.48359	-837.84660	1018.89404	781.25839	-1107.28806	1033.64487	873.25310	-1123.74435	1131.24039	667.62985	-916.34048	1109.52042	596.16516	-912.08725	1512.26349	814.91798	-976.39137	1590.96054	716.46233	-818.19481	1681.24176	892.72362	-985.00656	1724.08417	826.87744	-869.23141	1708.02841	724.29787	-1125.53284	1473.21487	872.13913	-1202.79846	1135.80734	942.05063	-1131.15646	1139.88686	919.93202	-1172.16553	1195.42419	998.19412	-1088.25562	996.69510	1130.20920	-1055.15785	1039.64966	1152.99805	-1022.90848	1034.11697	1108.69118	-805.96260	1465.85266	589.25377	-871.29311	1136.41617	578.76152	-788.15063	1167.77199	524.44794	-863.85941	1151.32973	499.87431	-795.21889	907.73232	492.08405	-770.36873	907.03934	529.34856	-804.61464	909.81346	567.18922	-1193.66760	984.50684	808.11371	-830.32547	986.34232	637.16206	-1176.86142	438.66512	776.44035	-1235.53062	499.56390	703.52890	-1119.45145	474.14955	661.25885	-817.58095	478.14224	854.06654	-861.50253	469.47224	744.29848	-918.27118	464.28658	866.01410	-1273.84033	165.42820	566.15326	-1221.80580	181.16383	520.68645	-1298.56140	206.23432	501.42265	-814.02710	142.28758	905.80688	-847.36092	115.13227	842.36519	-880.19066	137.10302	918.78326 
